<svg width="16" height="24" viewBox="0 0 16 24" fill="none" xmlns="http://www.w3.org/2000/svg">
<path d="M8.04599 1.87526C7.78677 1.87338 7.57536 2.08198 7.57348 2.34073C7.57161 2.59948 7.77973 2.81088 8.03895 2.81276C8.2977 2.81463 8.50911 2.60651 8.51098 2.34776C8.51286 2.08901 8.30474 1.8776 8.04599 1.87526ZM8.02466 4.68771C6.21477 4.67487 4.73253 6.13498 4.71884 7.9443C4.7052 9.75354 6.16611 11.2365 7.97544 11.2501L8.00056 11.2502C9.79836 11.2502 11.2677 9.79446 11.2812 7.99352C11.2949 6.18438 9.83403 4.70135 8.02466 4.68771ZM8.00047 10.3128L7.98247 10.3127C6.69008 10.3029 5.64655 9.24363 5.6563 7.95133C5.666 6.66485 6.71544 5.62507 7.99963 5.62507L8.01763 5.62516C9.31002 5.63491 10.3535 6.69419 10.3438 7.98649C10.334 9.27298 9.28466 10.3128 8.00047 10.3128ZM10.0453 2.23076C9.80141 2.14423 9.53333 2.27196 9.4468 2.51599C9.36031 2.76002 9.48805 3.02791 9.73203 3.11444C11.7967 3.84621 13.1728 5.81266 13.1562 8.00768C13.1543 8.26652 13.3626 8.47798 13.6215 8.47994H13.6251C13.8823 8.47994 14.0918 8.27238 14.0938 8.01471C14.1132 5.42032 12.4863 3.09593 10.0453 2.23076Z" fill="#84C000"/>
<path d="M10.876 17.6457C13.9938 13.6325 15.9423 11.5398 15.9686 8.02866C16.0016 3.61102 12.4165 0 7.99918 0C3.63343 0 0.0644617 3.53569 0.0312742 7.90912C0.00446167 11.5155 1.9891 13.6053 5.12841 17.6451C2.00537 18.1117 0.0312742 19.2844 0.0312742 20.7188C0.0312742 21.6795 0.919368 22.5417 2.53201 23.1464C3.99981 23.6968 5.9417 24 7.99993 24C10.0582 24 12.0001 23.6968 13.4679 23.1464C15.0805 22.5417 15.9686 21.6795 15.9686 20.7187C15.9686 19.2852 13.9963 18.1128 10.876 17.6457ZM0.968727 7.9162C0.997977 4.05703 4.14681 0.9375 7.99927 0.9375C11.8974 0.9375 15.0602 4.12444 15.0311 8.02167C15.0062 11.3561 12.9399 13.4109 9.64093 17.7114C9.05251 18.4781 8.51213 19.203 8.00063 19.912C7.49063 19.2025 6.96104 18.4906 6.3638 17.7111C2.92852 13.2306 0.943321 11.331 0.968727 7.9162ZM7.99993 23.0625C3.97566 23.0625 0.968727 21.8251 0.968727 20.7188C0.968727 19.8983 2.76629 18.8617 5.7887 18.5028C6.45681 19.3794 7.04256 20.1758 7.61706 20.9892C7.6603 21.0504 7.7176 21.1004 7.78415 21.1349C7.8507 21.1694 7.92455 21.1874 7.99951 21.1875H7.99993C8.07483 21.1875 8.14863 21.1695 8.21517 21.1352C8.2817 21.1008 8.33902 21.0509 8.38234 20.9898C8.9514 20.187 9.55318 19.371 10.2156 18.5033C13.2352 18.8626 15.0311 19.8988 15.0311 20.7188C15.0311 21.8251 12.0242 23.0625 7.99993 23.0625Z" fill="#84C000"/>
</svg>
